Coordinates
version=1
nRows=13
nColumns=36
inDegrees=yes

Units are S.I. units (second, meters, Newtons, ...)
If the header above contains a line with 'inDegrees', this indicates whether rotational values are in degrees (yes) or radians (no).

endheader
time	pelvis_tilt	pelvis_list	pelvis_rotation	pelvis_tx	pelvis_ty	pelvis_tz	hip_flexion_r	hip_adduction_r	hip_rotation_r	knee_angle_r	knee_angle_r_beta	ankle_angle_r	subtalar_angle_r	mtp_angle_r	hip_flexion_l	hip_adduction_l	hip_rotation_l	knee_angle_l	knee_angle_l_beta	ankle_angle_l	subtalar_angle_l	mtp_angle_l	lumbar_extension	lumbar_bending	lumbar_rotation	arm_flex_r	arm_add_r	arm_rot_r	elbow_flex_r	pro_sup_r	arm_flex_l	arm_add_l	arm_rot_l	elbow_flex_l	pro_sup_l
      0.00000000	     -1.36212788	     -0.66878144	      2.37194395	     -0.07729324	      1.11106300	     -0.27301565	     26.31890574	      1.19437103	     -5.55825986	     12.17682190	      0.21252563	     -5.39478755	     -5.07583675	     -4.53536549	    -15.13501608	     -0.93501138	     -7.77169647	     23.71880894	      0.41397131	     -0.51718914	     -1.60181195	     -4.53536549	    -14.10066335	      1.75824496	     -3.74118471	    -15.86413268	     -6.36777366	    -10.94921889	     40.54226524	    110.22104622	    -11.31842196	     -7.94079825	    -11.58916661	     43.36590239	    106.47308864
      0.01000000	     -1.24355237	     -1.05863796	      2.24618973	     -0.06451037	      1.11360613	     -0.27177268	     25.92556676	      1.61085534	     -5.72776627	     12.93866799	      0.22582236	     -5.16814402	     -4.74552259	     -4.57047371	    -13.96750262	     -1.73012832	     -8.30882625	     26.80644219	      0.46786068	     -2.54921299	     -2.54047148	     -4.57047371	    -14.29027442	      2.55835479	     -3.41831066	    -15.65653484	     -6.50953342	    -11.07999473	     40.55294710	    110.15847611	    -11.72028905	     -7.58002141	    -11.56328591	     43.54096009	    106.55060147
      0.02000000	     -1.35559254	     -1.23716859	      2.18337340	     -0.05203933	      1.11581775	     -0.27081700	     25.83350524	      1.73042761	     -6.09931153	     13.80028904	      0.24086048	     -4.68594794	     -3.97214599	     -4.65958546	    -12.52678777	     -2.18431564	     -8.28233554	     29.80316064	      0.52016328	     -5.22651906	     -4.47821438	     -4.65958546	    -14.24971468	      3.13746708	     -3.19555480	    -15.47653492	     -6.60596935	    -11.34395998	     40.64051542	    110.07301187	    -12.11980953	     -7.20979478	    -11.64998539	     43.77968165	    106.71803376
      0.03000000	     -1.27154685	     -1.62620831	      2.19245242	     -0.03949024	      1.11822180	     -0.26960293	     25.34025007	      2.13795823	     -6.36890244	     14.29463473	      0.24948844	     -4.36569939	     -3.74114392	     -4.68848766	    -11.20481147	     -3.02722932	     -8.52531809	     32.91329930	      0.57444544	     -7.42064944	     -5.30920384	     -4.68848766	    -14.38643750	      3.91105776	     -2.97367825	    -15.32844092	     -6.73084166	    -11.44661945	     40.80305017	    110.06392383	    -12.52197151	     -6.95695144	    -11.51387924	     44.04781474	    106.80707379
      0.04000000	     -1.48489419	     -1.77285934	      2.29799961	     -0.02742733	      1.12028081	     -0.26872248	     25.18921216	      2.23114964	     -6.75073362	     14.82743092	      0.25878749	     -4.03976776	     -3.29648578	     -4.75257008	     -9.44215974	     -3.44860537	     -8.15230979	     35.99796191	      0.62828296	    -10.39516922	     -7.55023324	     -4.75257008	    -14.21954566	      4.44019594	     -2.93456126	    -15.20521153	     -6.79741754	    -11.64351416	     41.07380117	    110.05974163	    -12.92718433	     -6.75678117	    -11.27479364	     44.37563490	    106.96345498
      0.05000000	     -1.59600965	     -1.94193852	      2.49624017	     -0.01553677	      1.12249873	     -0.26786313	     24.78066078	      2.37691171	     -7.14146009	     15.07450347	      0.26309972	     -3.59059730	     -3.07508136	     -4.83118944	     -7.69720384	     -3.91476105	     -7.70751148	     39.04328566	      0.68143389	    -13.44134802	     -9.47738206	     -4.83118944	    -14.16168008	      4.98768207	     -2.92221543	    -15.07250372	     -6.89822620	    -11.75256433	     41.36105822	    110.07051342	    -13.23450486	     -6.66425844	    -10.82859540	     44.64520973	    107.12781678
      0.06000000	     -1.67519390	     -2.20722932	      2.78260419	     -0.00383350	      1.12470172	     -0.26697596	     24.21106860	      2.65017217	     -7.53545267	     15.05595582	      0.26277600	     -3.23289407	     -3.07053626	     -4.87581227	     -5.87047730	     -4.54073817	     -7.27728973	     42.13919175	      0.73546764	    -15.92256557	    -10.75297308	     -4.87581227	    -14.11810161	      5.63247990	     -3.01819846	    -14.93757131	     -7.01735711	    -11.79197121	     41.76756956	    110.08400315	    -13.55336443	     -6.63330249	    -10.28000254	     44.98197709	    107.25273514
      0.07000000	     -1.63806476	     -2.43115681	      3.17218593	      0.00763405	      1.12710203	     -0.26624185	     23.41394398	      2.90595887	     -7.77428346	     14.85206155	      0.25921737	     -2.76246254	     -3.16387891	     -4.89799848	     -4.12405134	     -5.04361858	     -6.52041126	     45.08290265	      0.78684509	    -18.07018745	    -11.49200634	     -4.89799848	    -14.19491787	      6.22501229	     -3.06390589	    -14.83403038	     -7.15757247	    -11.78212998	     42.08884480	    110.09257154	    -13.69845723	     -6.60893534	     -9.76799723	     45.30617142	    107.34787844
      0.08000000	     -1.88375593	     -2.39701917	      3.52054000	      0.01863327	      1.12915074	     -0.26570879	     23.01608538	      2.84255375	     -8.16780940	     14.79194713	      0.25816818	     -2.60833967	     -3.30077965	     -4.98201843	     -2.02775806	     -5.10988148	     -5.78184958	     47.85196795	      0.83517439	    -21.17022115	    -14.17068893	     -4.98201843	    -13.95860558	      6.52819103	     -3.11752442	    -14.77878379	     -7.25375627	    -11.83418511	     42.53372492	    110.04286913	    -13.74229717	     -6.85967304	     -8.44780028	     45.35092755	    107.48959864
      0.09000000	     -1.74222277	     -2.52762743	      3.94818779	      0.02965554	      1.13168092	     -0.26522147	     22.03942106	      3.02196014	     -8.32822890	     14.42789694	      0.25181431	     -2.19515674	     -3.38383215	     -5.00272674	     -0.36616521	     -5.39258895	     -4.96519118	     50.49394020	      0.88128551	    -22.24059094	    -14.67116308	     -5.00272674	    -14.14610785	      7.00652237	     -3.17010099	    -14.64959337	     -7.41467887	    -11.81725603	     42.90627306	    110.03943003	    -13.74624248	     -6.86659381	     -7.88003695	     45.63813779	    107.57226114
      0.10000000	     -1.86503833	     -2.53067248	      4.33463262	      0.04035178	      1.13381313	     -0.26481739	     21.47297264	      3.00901176	     -8.64635263	     14.28028149	      0.24923793	     -2.13360954	     -3.54990973	     -5.06060365	      1.60429666	     -5.44353222	     -4.25106554	     53.00790426	      0.92516246	    -23.34492901	    -16.11898554	     -5.06060365	    -13.99714877	      7.33263689	     -3.14307215	    -14.65691351	     -7.55038546	    -11.86277721	     43.42538215	    109.96790781	    -13.66490137	     -7.16237827	     -6.50463328	     45.71647319	    107.70710296
      0.11000000	     -1.71515168	     -2.52649283	      4.71808528	      0.05099512	      1.13640825	     -0.26451189	     20.49940320	      3.05341254	     -8.72079262	     13.90894322	      0.24275685	     -1.76665952	     -3.63044395	     -5.08646696	      3.20394954	     -5.44073348	     -3.51414172	     55.25378123	      0.96436041	    -23.27458660	    -16.87092211	     -5.08646696	    -14.18308109	      7.64570953	     -3.13034777	    -14.50528739	     -7.71136819	    -11.91289339	     43.83614667	    109.93404172	    -13.51455436	     -7.21331116	     -5.78961321	     45.89627333	    107.79268329
      0.12000000	     -1.70552759	     -2.44085933	      5.04121420	      0.06138143	      1.13879592	     -0.26428269	     19.78960718	      2.97840280	     -8.80543634	     13.75525252	      0.24007445	     -1.62584635	     -3.68845069	     -5.16898192	      4.93669249	     -5.27508539	     -2.83389489	     57.33497153	      1.00068403	    -22.59864376	    -17.44702377	     -5.16898192	    -14.19496730	      7.88485068	     -2.79700844	    -14.59857699	     -7.82377341	    -12.28240850	     44.40540218	    109.75991855	    -13.12031590	     -7.48891846	     -4.23002214	     45.80160432	    107.93105705
